<?xml version="1.0" encoding="utf-8"?>
<!-- Generator: Adobe Illustrator 24.0.1, SVG Export Plug-In . SVG Version: 6.00 Build 0)  -->
<svg version="1.1" id="Camada_1" xmlns="http://www.w3.org/2000/svg" xmlns:xlink="http://www.w3.org/1999/xlink" x="0px" y="0px"
	 viewBox="0 0 595.3 181.6" style="enable-background:new 0 0 595.3 181.6;" xml:space="preserve">
<style type="text/css">
	.st0{fill:#FFFFFF;}
	.st1{fill:#E52628;}
	.st2{fill:#2D8142;}
</style>
<g>
	<g id="XMLID_3_">
		<rect x="40.6" y="146.3" class="st0" width="514.1" height="3.7"/>
		<path class="st0" d="M503.6,63.4c14.6,0.9,20.9,19.9-2.3,27.3L465.4,91c-3.6,0-8.5-1.8-8.5-3.8c-0.1-15.1-0.1-30.2-0.1-45.3
			c0-0.3,0-0.2,0.1-0.4c1-2,5.1-3.1,8.2-3.4c10.8-0.9,21.8-1.6,32.7,1.3c11,2.9,19.7,14.7,5.6,23.4
			C503.5,63.3,503.5,62.8,503.6,63.4z M496.9,74.8c0-4.2-3-7.6-6.8-7.6c-0.2,0-0.5,0-0.7,0v0h-12.2v15.1h12.2v0c0.2,0,0.5,0,0.7,0
			C493.9,82.4,496.9,79,496.9,74.8z M494.8,52.1c0-3.5-2.7-6.3-6.1-6.3c-0.2,0-0.4,0-0.6,0v0h-10.9v12.6h10.9v0c0.2,0,0.4,0,0.6,0
			C492.1,58.4,494.8,55.6,494.8,52.1z"/>
		<path class="st0" d="M425.7,40.5l25,50.3l-19.9,0l-6.6-10.7c1.1-1.3,1.6-2.9,1.1-4.4c-0.5-1.5-2-3.5-3.7-5.4h0.4l-3.6-7.9
			l-3.6-7.9l-3.6,7.9l-3.6,7.9h0.1c-1.8,1.9-3.3,3.9-3.9,5.4c-0.6,1.6,0.1,3.2,1.4,4.6l-5,10.5l-20.6,0c8-17,12.4-34.2,23.5-50.3
			C406.2,36.2,423.6,36.2,425.7,40.5z"/>
		<path class="st0" d="M425.9,114.2c2.4,0,4.3,0.2,5.4,0.6c1.2,0.4,2.1,0.9,2.9,1.7c0.8,0.8,1.4,1.9,1.9,3.2l-7.5,0.7
			c-0.2-0.7-0.5-1.1-1-1.4c-0.6-0.4-1.4-0.6-2.3-0.6c-0.9,0-1.5,0.2-1.9,0.5c-0.4,0.3-0.6,0.7-0.6,1.2c0,0.5,0.3,0.9,0.8,1.2
			c0.5,0.3,1.6,0.5,3.4,0.7c2.6,0.3,4.6,0.7,5.9,1.2c1.3,0.5,2.2,1.3,2.9,2.3c0.7,1,1,2.1,1,3.2c0,1.2-0.4,2.3-1.1,3.5
			c-0.7,1.1-1.8,2-3.4,2.7c-1.6,0.7-3.7,1-6.3,1c-3.8,0-6.4-0.5-8-1.6c-1.6-1.1-2.6-2.6-3.1-4.6l7.8-0.7c0.3,0.9,0.8,1.6,1.4,2
			c0.6,0.4,1.3,0.6,2.3,0.6c1.1,0,1.9-0.2,2.4-0.7c0.5-0.3,0.7-0.8,0.7-1.3c0-0.6-0.3-1-0.9-1.3c-0.4-0.2-1.6-0.5-3.4-0.8
			c-2.7-0.5-4.6-0.9-5.7-1.3c-1.1-0.4-2-1.1-2.7-2.1c-0.7-1-1.1-2.1-1.1-3.3c0-1.3,0.4-2.5,1.2-3.5c0.8-1,1.9-1.7,3.3-2.2
			C421.7,114.4,423.6,114.2,425.9,114.2z"/>
		<path class="st1" d="M421.5,70.3h-6.7h-7c3.1-3.3,6.8-6.5,6.8-6.5S418.4,66.9,421.5,70.3z"/>
		<path class="st0" d="M410.1,117.8c1.7,1.9,2.5,4.3,2.5,7.1c0,3.2-1.1,5.8-3.1,7.8c-2.1,2-5,3-8.7,3c-3.3,0-6-0.8-8-2.5
			c-2.5-2.1-3.8-4.8-3.8-8.2c0-3.2,1.1-5.7,3.2-7.8c2.1-2,5-3.1,8.6-3.1C404.9,114.2,408,115.4,410.1,117.8z M404.7,124.9
			c0-1.8-0.4-3.1-1.1-4c-0.7-0.9-1.6-1.3-2.7-1.3c-1.1,0-2.1,0.4-2.8,1.3c-0.8,0.9-1.1,2.2-1.1,4.1c0,1.8,0.4,3.2,1.1,4.1
			c0.7,0.9,1.7,1.3,2.8,1.3c1.1,0,2.1-0.4,2.8-1.3C404.3,128.3,404.7,126.9,404.7,124.9z"/>
		<path class="st1" d="M414.8,84.2c-3.6,0-7.4-1.7-9.5-3.9l0.2-0.5h2.3c1.3,1.1,2.7,1.9,3,1.9c0.3,0-0.6-0.8-1.6-1.9h14.7l0.2,0.3
			C422.3,82.4,418.5,84.2,414.8,84.2z"/>
		<path class="st1" d="M406,77.6c0.3,0.7,1,1.5,1.8,2.2h-2.3l-0.2,0.5c-1.3-1.4-2-3.1-1.4-4.6c0.6-1.5,2.1-3.5,3.9-5.4h7h6.7
			c1.7,1.9,3.2,3.8,3.7,5.4c0.5,1.5,0,3.1-1.1,4.4l-0.2-0.3h-14.7c-0.6-0.7-1.2-1.4-1.6-2.2c-0.9-1.9,0.4-5.3,0.5-5.6
			C408,72.3,405.4,75.7,406,77.6z"/>
		<path class="st0" d="M378.8,127.2l7.5,0.8c-0.4,1.6-1.1,2.9-2,4.1c-0.9,1.1-2.1,2-3.6,2.7c-1.4,0.6-3.3,0.9-5.6,0.9
			c-2.2,0-4-0.2-5.5-0.6c-1.4-0.4-2.7-1.1-3.7-2c-1.1-0.9-1.9-2-2.5-3.2c-0.6-1.2-0.9-2.9-0.9-4.9c0-2.1,0.4-3.9,1.1-5.3
			c0.5-1,1.3-2,2.2-2.8c0.9-0.8,1.8-1.4,2.8-1.8c1.5-0.6,3.5-0.9,5.9-0.9c3.4,0,5.9,0.6,7.7,1.8c1.8,1.2,3,3,3.7,5.3l-7.4,1
			c-0.2-0.9-0.7-1.5-1.3-2c-0.6-0.4-1.4-0.7-2.5-0.7c-1.3,0-2.4,0.5-3.2,1.4c-0.8,0.9-1.2,2.3-1.2,4.3c0,1.7,0.4,3,1.2,3.8
			c0.8,0.9,1.8,1.3,3.1,1.3c1,0,1.9-0.3,2.6-0.8C378,129.1,378.5,128.3,378.8,127.2z"/>
		<rect x="350.5" y="114.7" class="st0" width="7.9" height="20.6"/>
		<rect x="350.5" y="106.8" class="st0" width="7.9" height="5.4"/>
		<path class="st0" d="M350.4,70.7v8.7c0,1.2,1.4,2.6,4.6,2.6l21.8-0.1v8.4c-12.6,0.1-27.2,0.2-33,0.2c-5.9,0.1-12-3.5-12-6.7l0-4.6
			c5.5,0,11.6-0.1,17.3-0.1l0.4-8.4H350.4z"/>
		<polygon class="st0" points="350.4,37 350.4,70.7 349.5,70.7 331.7,70.8 331.6,37.1 		"/>
		<path class="st0" d="M349.5,70.7l-0.4,8.4c-5.7,0.1-11.8,0.1-17.3,0.1l0-8.4L349.5,70.7z"/>
		<path class="st0" d="M346.2,129.6l0.6,5.5c-1.9,0.4-3.8,0.6-5.5,0.6c-2,0-3.4-0.3-4.3-0.8c-0.9-0.5-1.6-1.3-2.1-2.3
			c-0.4-1-0.7-2.7-0.7-5v-7.2h-2.9v-5.8h2.9v-3.8l7.9-4.1v7.8h4.3v5.8h-4.3v7.3c0,0.9,0.1,1.4,0.3,1.7c0.3,0.4,0.7,0.7,1.4,0.7
			C344.4,130.1,345.2,130,346.2,129.6z"/>
		<path class="st0" d="M331.7,70.8l0,8.4c-6.7,0.1-12.6,0.1-15.7,0.1c-5.9,0.1-12-3.5-12.1-6.8l-0.1-46.7l18.8-0.1v42.4
			c0,1.2,1.4,2.6,4.6,2.6L331.7,70.8z"/>
		<path class="st0" d="M317.8,114.2c2.4,0,4.3,0.2,5.4,0.6c1.2,0.4,2.1,0.9,2.9,1.7c0.8,0.8,1.4,1.9,1.9,3.2l-7.5,0.7
			c-0.2-0.7-0.5-1.1-1-1.4c-0.6-0.4-1.4-0.6-2.2-0.6c-0.9,0-1.5,0.2-1.9,0.5c-0.4,0.3-0.6,0.7-0.6,1.2c0,0.5,0.3,0.9,0.8,1.2
			c0.5,0.3,1.6,0.5,3.4,0.7c2.6,0.3,4.6,0.7,5.9,1.2c1.3,0.5,2.2,1.3,2.9,2.3c0.7,1,1,2.1,1,3.2c0,1.2-0.4,2.3-1.1,3.5
			c-0.7,1.1-1.8,2-3.4,2.7c-1.6,0.7-3.7,1-6.3,1c-3.8,0-6.4-0.5-8-1.6c-1.6-1.1-2.6-2.6-3.1-4.6l7.8-0.7c0.3,0.9,0.8,1.6,1.3,2
			c0.6,0.4,1.4,0.6,2.3,0.6c1.1,0,1.9-0.2,2.5-0.7c0.5-0.3,0.7-0.8,0.7-1.3c0-0.6-0.3-1-0.9-1.3c-0.4-0.2-1.6-0.5-3.4-0.8
			c-2.7-0.5-4.6-0.9-5.7-1.3c-1.1-0.4-1.9-1.1-2.7-2.1c-0.7-1-1.1-2.1-1.1-3.3c0-1.3,0.4-2.5,1.2-3.5c0.8-1,1.9-1.7,3.3-2.2
			C313.7,114.4,315.5,114.2,317.8,114.2z"/>
		<path class="st0" d="M302,117.8c1.7,1.9,2.5,4.3,2.5,7.1c0,3.2-1.1,5.8-3.1,7.8c-2.1,2-5,3-8.7,3c-3.3,0-6-0.8-8-2.5
			c-2.5-2.1-3.7-4.8-3.7-8.2c0-3.2,1.1-5.7,3.2-7.8c2.1-2,5-3.1,8.6-3.1C296.8,114.2,299.9,115.4,302,117.8z M296.6,124.9
			c0-1.8-0.4-3.1-1.1-4c-0.7-0.9-1.6-1.3-2.7-1.3c-1.1,0-2.1,0.4-2.8,1.3c-0.7,0.9-1.1,2.2-1.1,4.1c0,1.8,0.4,3.2,1.1,4.1
			c0.7,0.9,1.7,1.3,2.8,1.3s2.1-0.4,2.8-1.3C296.3,128.3,296.6,126.9,296.6,124.9z"/>
		<path class="st0" d="M274.7,28.9l25,50.3l-20,0L273,68.2h-18.4l-5.2,11.1h-20.6c7.9-17,12.4-34.2,23.5-50.3
			C255.3,24.6,272.6,24.7,274.7,28.9z M271,58.7l-3.6-7.9l-3.6-7.9l-3.6,7.9l-3.6,7.9h7.1H271z"/>
		<polygon class="st0" points="299.3,106.3 293,112.1 289.3,112.1 292.5,106.3 		"/>
		<path class="st0" d="M266.5,120.4c-0.9,0-1.7,0.4-2.3,1.1c-0.6,0.7-0.9,2-0.9,3.9v9.9h-7.9v-20.6h7.3v3.3c1.1-1.4,2.2-2.3,3.3-2.9
			c1.1-0.6,2.5-0.9,4.1-0.9c2.2,0,3.9,0.7,5.1,1.9c1.2,1.3,1.8,3.3,1.8,6v13.1h-7.9v-11.3c0-1.3-0.2-2.2-0.7-2.7
			C268,120.6,267.4,120.4,266.5,120.4z"/>
		<path class="st0" d="M239.3,129c1,0,1.8-0.4,2.5-1.1c0.7-0.7,1-1.9,1-3.4c0-1.5-0.4-2.7-1.1-3.5c-0.7-0.8-1.6-1.2-2.6-1.2
			c-1,0-1.8,0.4-2.4,1.1c-0.6,0.7-0.9,1.9-0.9,3.6c0,1.5,0.3,2.6,0.9,3.3C237.4,128.7,238.2,129,239.3,129z M240.3,115
			c1,0.6,2,1.4,2.9,2.7v-3h7.4v19.4l0,0.9c0,1.3-0.3,2.5-0.8,3.7c-0.6,1.2-1.3,2.1-2.2,2.8c-0.9,0.7-2.1,1.3-3.5,1.6
			c-1.4,0.3-3,0.5-4.8,0.5c-4.1,0-7-0.6-8.5-1.9c-1.6-1.2-2.3-2.9-2.3-5c0-0.3,0-0.6,0.1-1l7.7,0.9c0.2,0.7,0.5,1.2,0.9,1.5
			c0.6,0.4,1.3,0.6,2.2,0.6c1.1,0,2-0.3,2.5-0.9c0.6-0.6,0.8-1.7,0.8-3.2v-3.1c-0.8,0.9-1.6,1.6-2.3,2c-1.2,0.6-2.5,1-3.9,1
			c-2.7,0-5-1.2-6.7-3.6c-1.2-1.7-1.8-4-1.8-6.8c0-3.2,0.8-5.7,2.3-7.3c1.6-1.7,3.6-2.5,6.1-2.5C238,114.2,239.3,114.5,240.3,115z"
			/>
		<polygon class="st0" points="233.6,27.1 233.2,36.4 215.1,36.4 215.1,79.2 197.1,79.3 197.1,36.4 179.3,36.4 179.3,27.3 		"/>
		<path class="st0" d="M215.8,125.5c-1.1,0.4-2.2,0.7-3.4,1c-1.6,0.4-2.6,0.9-3.1,1.3c-0.4,0.4-0.7,0.9-0.7,1.5
			c0,0.6,0.2,1.1,0.6,1.5c0.4,0.4,1.1,0.6,1.9,0.6c0.9,0,1.7-0.2,2.5-0.7c0.8-0.4,1.3-0.9,1.6-1.6c0.3-0.6,0.5-1.4,0.5-2.4V125.5z
			 M213,122.4c0.9-0.2,1.8-0.6,2.8-0.9c0-1-0.2-1.7-0.6-2c-0.4-0.4-1.1-0.6-2.1-0.6c-1.3,0-2.3,0.2-2.9,0.6
			c-0.5,0.3-0.9,0.9-1.2,1.8l-7.5-0.8c0.3-1.3,0.7-2.4,1.2-3.1c0.5-0.8,1.3-1.4,2.3-2c0.7-0.4,1.7-0.7,3-0.9
			c1.3-0.2,2.6-0.3,4.1-0.3c2.4,0,4.3,0.1,5.7,0.4c1.4,0.3,2.6,0.8,3.6,1.7c0.7,0.6,1.2,1.4,1.6,2.5c0.4,1.1,0.6,2.1,0.6,3.1v9.1
			c0,1,0.1,1.7,0.2,2.3c0.1,0.6,0.4,1.3,0.8,2.1h-7.4c-0.3-0.5-0.5-0.9-0.6-1.2c-0.1-0.3-0.2-0.7-0.3-1.3c-1,1-2.1,1.7-3.1,2.1
			c-1.4,0.6-3,0.9-4.9,0.9c-2.4,0-4.3-0.6-5.6-1.7c-1.3-1.1-1.9-2.6-1.9-4.2c0-1.6,0.4-2.8,1.4-3.9c0.9-1,2.6-1.8,5.1-2.3
			C210.3,123.1,212.2,122.7,213,122.4z"/>
		<rect x="188.8" y="114.7" class="st0" width="7.9" height="20.6"/>
		<rect x="188.8" y="106.8" class="st0" width="7.9" height="5.4"/>
		<path class="st0" d="M161.5,28.3l25.2,50.9l-19.9,0l-7.1-11.6h-18.4l-5.5,11.6l-20.6,0c7.9-17,12.6-34.7,23.8-50.9
			C142,24.1,159.4,24.1,161.5,28.3z M157.8,58.1l-3.6-7.9l-3.6-7.9l-3.6,7.9l-3.6,7.9h7.1H157.8z"/>
		<path class="st0" d="M183.8,115.4c0.5,1.7,0.7,3.6,0.7,5.5c0,3-0.3,5.4-1,7.1s-1.7,3.1-2.9,4.2c-1.2,1.1-2.6,1.9-4,2.3
			c-1.9,0.5-3.7,0.8-5.2,0.8h-13.1v-28.4h13.1c2.6,0,4.7,0.4,6.2,1.1c1.6,0.7,2.9,1.7,3.9,3C182.6,112.2,183.3,113.7,183.8,115.4z
			 M175,126c0.4-1,0.7-2.7,0.7-4.9c0-3-0.5-5.1-1.5-6.2c-1-1.1-2.6-1.7-4.9-1.7h-2.2v15.5h2.2c1.8,0,3.1-0.2,3.9-0.6
			C174,127.8,174.6,127.1,175,126z"/>
		<path class="st0" d="M108.6,27.4c0,16.5,0.3,45.6,0,49.4c-0.3,3.8-17.2,3.4-19.8,0.3L64.1,44.8v34.5H45.7
			c-0.2-15.9-0.4-31.8-0.6-47.7c0.3-3.6,5.1-7.4,17.8-5.6c8.6,11.2,17.2,22.4,25.8,33.6c1.5,0.3,1.5,0.3,2.9-0.2l-1.4-32H108.6z"/>
	</g>
</g>
</svg>
